<svg width="284" height="642" viewBox="0 0 284 642" fill="none" xmlns="http://www.w3.org/2000/svg">
<rect width="284" height="559.28" fill="#CC0D0D"/>
<path d="M22.6368 488.818C22.6368 487.434 23.4441 486.165 25.0588 485.012C26.6734 483.859 28.5188 482.821 30.5948 481.898C32.9014 480.975 35.0928 480.168 37.1688 479.476C39.4754 478.784 41.2054 478.207 42.3588 477.746C53.4308 479.13 64.5028 480.283 75.5748 481.206C86.6468 482.129 97.7188 482.59 108.791 482.59C112.943 482.59 118.709 482.59 126.091 482.59C133.472 482.359 141.545 481.898 150.311 481.206C159.076 480.514 167.957 479.476 176.953 478.092C185.949 476.477 194.137 474.286 201.519 471.518C208.9 468.75 214.897 465.29 219.511 461.138C224.124 456.986 226.431 451.796 226.431 445.568C226.431 440.493 225.277 435.995 222.971 432.074C220.895 427.922 218.011 424.347 214.321 421.348C210.861 418.119 206.939 415.466 202.557 413.39C200.942 412.467 199.212 411.66 197.367 410.968C199.212 411.891 200.942 412.813 202.557 413.736C206.709 416.043 210.399 418.926 213.629 422.386C217.089 425.615 219.857 429.306 221.933 433.458C224.009 437.379 225.047 441.877 225.047 446.952C225.047 452.488 222.971 457.217 218.819 461.138C214.897 464.829 209.707 467.943 203.249 470.48C197.021 473.017 189.985 474.978 182.143 476.362C174.531 477.746 166.919 478.784 159.307 479.476C151.695 480.168 144.659 480.629 138.201 480.86C131.742 480.86 126.667 480.86 122.977 480.86C111.213 480.86 99.3334 480.514 87.3388 479.822C75.5748 478.899 63.8108 477.861 52.0468 476.708C56.1988 475.555 60.3508 474.747 64.5028 474.286C68.8854 473.594 73.2681 473.248 77.6508 473.248C85.0321 473.248 92.2981 473.363 99.4488 473.594C106.599 473.594 113.75 473.594 120.901 473.594C129.435 473.594 137.855 473.479 146.159 473.248C154.463 472.787 162.997 471.864 171.763 470.48L172.801 474.632C176.261 473.94 180.643 472.902 185.949 471.518C191.254 469.903 196.329 467.943 201.173 465.636C206.247 463.329 210.515 460.446 213.975 456.986C217.665 453.526 219.511 449.489 219.511 444.876C219.511 438.187 217.089 432.305 212.245 427.23C207.401 422.155 201.173 417.657 193.561 413.736C186.179 409.584 177.76 406.009 168.303 403.01C158.845 400.011 149.503 397.359 140.277 395.052C131.281 392.745 122.746 390.669 114.673 388.824C106.599 386.979 100.141 385.249 95.2968 383.634V385.71C100.141 387.555 106.484 389.516 114.327 391.592C122.169 393.437 130.589 395.513 139.585 397.82C148.811 400.127 158.038 402.779 167.265 405.778C176.491 408.546 184.795 411.891 192.177 415.812C199.789 419.733 205.901 424.231 210.515 429.306C215.359 434.381 217.781 440.147 217.781 446.606C217.781 450.297 216.051 453.526 212.591 456.294C209.131 459.062 204.979 461.484 200.135 463.56C195.521 465.405 190.793 466.905 185.949 468.058C181.105 469.211 177.414 470.019 174.877 470.48C177.875 469.788 181.681 468.865 186.295 467.712C191.139 466.328 195.752 464.598 200.135 462.522C204.748 460.446 208.669 458.024 211.899 455.256C215.128 452.257 216.743 448.797 216.743 444.876C216.743 438.417 214.205 432.997 209.131 428.614C204.056 424.231 197.367 420.31 189.063 416.85C180.759 413.39 171.301 410.276 160.691 407.508C150.08 404.74 139.123 401.741 127.821 398.512C116.749 395.283 105.907 391.592 95.2968 387.44C84.6861 383.288 75.2288 378.098 66.9248 371.87C58.6208 365.642 51.9314 358.261 46.8568 349.726C41.7821 341.191 39.2448 330.927 39.2448 318.932C39.2448 307.168 42.0128 297.249 47.5488 289.176C53.3154 280.872 60.5814 274.183 69.3468 269.108C78.3428 263.803 88.1461 259.997 98.7568 257.69C109.367 255.383 119.632 254.23 129.551 254.23C144.083 254.23 158.269 256.306 172.109 260.458C186.179 264.61 199.443 270.377 211.899 277.758C210.515 278.219 209.707 278.911 209.477 279.834C209.246 280.526 209.015 281.333 208.785 282.256C208.785 283.179 208.554 283.986 208.093 284.678C207.862 285.37 207.17 285.716 206.017 285.716C205.094 285.716 203.249 285.37 200.481 284.678C197.943 283.755 195.175 282.833 192.177 281.91C189.178 280.757 186.295 279.719 183.527 278.796C180.759 277.873 178.913 277.181 177.991 276.72L176.953 279.834C179.029 280.757 181.681 282.141 184.911 283.986C188.371 285.601 191.6 287.677 194.599 290.214C197.828 292.521 200.481 295.058 202.557 297.826C204.863 300.594 206.017 303.362 206.017 306.13C206.017 309.129 204.633 310.628 201.865 310.628C198.405 310.628 194.253 309.705 189.409 307.86C184.795 306.015 179.605 304.054 173.839 301.978C168.072 299.671 161.844 297.595 155.155 295.75C148.696 293.905 142.122 292.982 135.433 292.982C131.05 292.982 125.86 293.443 119.863 294.366C114.096 295.058 108.445 296.557 102.909 298.864C97.6034 300.94 93.1054 303.939 89.4148 307.86C85.7241 311.551 83.8788 316.279 83.8788 322.046C83.8788 327.351 86.3008 331.849 91.1448 335.54C96.2194 339.231 102.793 342.575 110.867 345.574C119.171 348.573 128.513 351.456 138.893 354.224C149.273 356.992 159.883 360.106 170.725 363.566C181.797 366.795 192.523 370.601 202.903 374.984C213.283 379.367 222.509 384.672 230.583 390.9C238.887 397.128 245.461 404.509 250.305 413.044C255.379 421.579 257.917 431.613 257.917 443.146C257.917 454.449 255.61 464.021 250.997 471.864C246.383 479.707 240.271 486.281 232.659 491.586C225.047 496.661 216.397 500.697 206.709 503.696C197.021 506.464 186.987 508.655 176.607 510.27C166.457 511.654 156.308 512.461 146.159 512.692C136.24 513.153 127.244 513.384 119.171 513.384H84.5708C82.4948 513.384 79.6114 513.269 75.9208 513.038C72.4608 513.038 69.0008 512.807 65.5408 512.346C62.0808 512.115 59.0821 511.539 56.5448 510.616C54.0074 509.693 52.7388 508.54 52.7388 507.156L53.0848 505.426C62.5421 505.887 71.8841 506.349 81.1108 506.81C90.3374 507.041 99.6794 507.156 109.137 507.156C117.902 507.156 126.667 507.156 135.433 507.156C143.275 506.925 151.118 506.464 158.961 505.772C155.039 506.003 151.118 506.233 147.197 506.464C142.353 506.464 137.624 506.464 133.011 506.464H119.171C97.4881 506.464 76.1514 505.772 55.1608 504.388C55.6221 502.543 55.8528 501.274 55.8528 500.582C55.8528 499.659 55.6221 498.737 55.1608 497.814C54.6994 497.814 54.0074 497.929 53.0848 498.16C52.3928 498.16 51.4701 498.16 50.3168 498.16C47.7794 498.16 44.8961 498.045 41.6668 497.814C38.6681 497.583 35.6694 497.122 32.6708 496.43C29.9028 495.738 27.4808 494.815 25.4048 493.662C23.5594 492.278 22.6368 490.663 22.6368 488.818ZM235.081 479.822C231.159 483.282 227.007 486.165 222.625 488.472C218.703 490.548 214.667 492.509 210.515 494.354C214.667 492.97 218.703 491.355 222.625 489.51C227.007 487.665 231.159 484.435 235.081 479.822Z" fill="black"/>
</svg>
